<svg width="225" height="127" viewBox="0 0 225 127" fill="none" xmlns="http://www.w3.org/2000/svg">
<path d="M23.5782 14.2477C24.0729 12.3957 24.9279 10.6593 26.0943 9.13799C27.2607 7.61667 28.7156 6.34025 30.3758 5.38175C32.0359 4.42325 33.8688 3.80148 35.7695 3.55202C37.6702 3.30255 39.6014 3.43029 41.4527 3.92791L75.9745 13.178C86.9601 16.1216 96.1137 20.7151 103.435 26.9584C110.495 32.7998 115.703 40.5691 118.424 49.3191C121.078 58.0181 121.062 67.3797 118.376 77.4039C115.69 87.428 111.024 95.5397 104.378 101.739C97.6593 107.961 89.2748 112.092 80.2477 113.63C70.7704 115.372 60.5465 114.773 49.5758 111.834L15.0205 102.574C11.2817 101.573 8.09396 99.1266 6.15862 95.7745C4.22327 92.4224 3.69882 88.4388 4.70063 84.7L23.5782 14.2477ZM55.0952 85.4663C62.2276 87.3774 68.48 86.864 73.8523 83.9261C79.2246 80.9882 82.9053 75.8077 84.8943 68.3846C86.8913 60.9317 86.294 54.605 83.1024 49.4043C79.9108 44.2037 74.7498 40.644 67.6194 38.7255L59.3019 36.4968C57.8195 36.0996 56.2399 36.3075 54.9108 37.0749C53.5816 37.8423 52.6117 39.1063 52.2145 40.5887L42.6858 76.1502C42.2886 77.6327 42.4966 79.2123 43.264 80.5414C44.0313 81.8706 45.2953 82.8404 46.7778 83.2377L55.0952 85.4663Z" fill="#E85C5C"/>
<mask id="mask0" mask-type="alpha" maskUnits="userSpaceOnUse" x="0" y="0" width="132" height="127">
<path d="M23.5782 14.2477C24.0729 12.3957 24.9279 10.6593 26.0943 9.13799C27.2607 7.61667 28.7156 6.34025 30.3758 5.38175C32.0359 4.42325 33.8688 3.80148 35.7695 3.55202C37.6702 3.30255 39.6014 3.43029 41.4527 3.92791L75.9745 13.178C86.9601 16.1216 96.1137 20.7151 103.435 26.9584C110.495 32.7998 115.703 40.5691 118.424 49.3191C121.078 58.0181 121.062 67.3797 118.376 77.4039C115.69 87.428 111.024 95.5397 104.378 101.739C97.6593 107.961 89.2748 112.092 80.2477 113.63C70.7704 115.372 60.5465 114.773 49.5758 111.834L15.0205 102.574C11.2817 101.573 8.09396 99.1266 6.15862 95.7745C4.22327 92.4224 3.69882 88.4388 4.70063 84.7L23.5782 14.2477ZM55.0952 85.4663C62.2276 87.3774 68.48 86.864 73.8523 83.9261C79.2246 80.9882 82.9053 75.8077 84.8943 68.3846C86.8913 60.9317 86.294 54.605 83.1024 49.4043C79.9108 44.2037 74.7498 40.644 67.6194 38.7255L59.3019 36.4968C57.8195 36.0996 56.2399 36.3075 54.9108 37.0749C53.5816 37.8423 52.6117 39.1063 52.2145 40.5887L42.6858 76.1502C42.2886 77.6327 42.4966 79.2123 43.264 80.5414C44.0313 81.8706 45.2953 82.8404 46.7778 83.2377L55.0952 85.4663Z" fill="#E85C5C"/>
</mask>
<g mask="url(#mask0)">
<path d="M22.1955 -4.75237L56.8832 39.8932L44.6661 100.718L-21.281 52.0485L22.1955 -4.75237Z" fill="url(#paint0_linear)"/>
</g>
<path d="M128.847 53.8869C128.847 51.622 130.683 49.7859 132.948 49.7859H133.574C135.839 49.7859 137.675 51.622 137.675 53.8869V109.948C137.675 112.213 135.839 114.049 133.574 114.049H132.948C130.683 114.049 128.847 112.213 128.847 109.948V53.8869Z" fill="#E85C5C"/>
<path d="M145.868 87.7053C145.868 85.4403 147.704 83.6042 149.969 83.6042H150.595C152.86 83.6042 154.696 85.4403 154.696 87.7053V109.948C154.696 112.213 152.86 114.049 150.595 114.049H149.969C147.704 114.049 145.868 112.213 145.868 109.948V87.7053ZM150.282 79.36C148.66 79.36 147.339 78.8884 146.321 77.9453C145.302 77.0021 144.793 75.8326 144.793 74.4367C144.793 73.0408 145.302 71.8713 146.321 70.9282C147.339 69.985 148.66 69.5134 150.282 69.5134C151.904 69.5134 153.225 69.9661 154.243 70.8716C155.262 71.777 155.771 72.9088 155.771 74.2669C155.771 75.7383 155.262 76.9644 154.243 77.9453C153.225 78.8884 151.904 79.36 150.282 79.36Z" fill="#E85C5C"/>
<path d="M173.132 114.502C170.604 114.502 168.133 114.2 165.719 113.597C164.575 113.293 163.541 112.955 162.618 112.584C161.016 111.94 160.485 110.061 161.212 108.495C162.1 106.583 164.489 105.889 166.474 106.598C166.904 106.752 167.35 106.896 167.812 107.032C169.737 107.56 171.623 107.825 173.471 107.825C177.206 107.825 179.074 106.9 179.074 105.052C179.074 104.184 178.564 103.561 177.546 103.184C176.527 102.807 174.962 102.486 172.849 102.222C170.359 101.845 168.303 101.411 166.681 100.921C165.058 100.43 163.644 99.5625 162.436 98.3175C161.267 97.0725 160.682 95.2994 160.682 92.9981C160.682 91.074 161.229 89.3764 162.323 87.905C163.455 86.396 165.077 85.2265 167.19 84.3965C169.34 83.5665 171.868 83.1515 174.773 83.1515C176.923 83.1515 179.055 83.3967 181.168 83.8872C182.039 84.0706 182.849 84.2851 183.596 84.5305C185.304 85.0913 185.906 87.052 185.143 88.6801C184.28 90.522 182.034 91.2023 180.09 90.6058C178.402 90.088 176.629 89.8291 174.773 89.8291C172.887 89.8291 171.472 90.0932 170.529 90.6213C169.586 91.1495 169.114 91.8286 169.114 92.6585C169.114 93.6017 169.623 94.2619 170.642 94.6392C171.661 95.0164 173.283 95.3748 175.509 95.7144C177.999 96.1294 180.036 96.5821 181.62 97.0725C183.205 97.5253 184.582 98.3741 185.751 99.6191C186.921 100.864 187.506 102.599 187.506 104.825C187.506 106.712 186.94 108.39 185.808 109.862C184.676 111.333 183.016 112.484 180.828 113.314C178.678 114.106 176.112 114.502 173.132 114.502Z" fill="#E85C5C"/>
<path d="M211.457 83.1515C215.23 83.1515 218.267 84.2833 220.568 86.5469C222.907 88.8105 224.077 92.1681 224.077 96.6198V109.948C224.077 112.213 222.241 114.049 219.976 114.049H219.35C217.085 114.049 215.249 112.213 215.249 109.948V97.978C215.249 95.5635 214.721 93.7715 213.664 92.602C212.608 91.3947 211.08 90.7911 209.08 90.7911C206.855 90.7911 205.081 91.489 203.761 92.8849C202.441 94.2431 201.78 96.2803 201.78 98.9966V109.948C201.78 112.213 199.944 114.049 197.679 114.049H197.053C194.788 114.049 192.952 112.213 192.952 109.948V53.8869C192.952 51.622 194.788 49.7859 197.053 49.7859H197.679C199.944 49.7859 201.78 51.622 201.78 53.8869V81.7238C201.78 83.5872 204.273 84.7503 206.025 84.1135C207.685 83.4722 209.495 83.1515 211.457 83.1515Z" fill="#E85C5C"/>
<defs>
<linearGradient id="paint0_linear" x1="26.3929" y1="-4.22551" x2="15.9259" y2="79.1634" gradientUnits="userSpaceOnUse">
<stop stop-color="#630101"/>
<stop offset="1" stop-color="#E85C5C" stop-opacity="0"/>
</linearGradient>
</defs>
</svg>
