<svg width="75" height="72" viewBox="0 0 75 72" fill="none" xmlns="http://www.w3.org/2000/svg">
<path d="M13.4178 8.42703C13.6969 7.38198 14.1794 6.40222 14.8375 5.5438C15.4957 4.68538 16.3166 3.96515 17.2534 3.42431C18.1901 2.88346 19.2244 2.53263 20.2968 2.39186C21.3693 2.2511 22.459 2.32318 23.5036 2.60397L42.9829 7.82342C49.1816 9.48435 54.3466 12.0763 58.4778 15.5991C62.4615 18.8952 65.4002 23.2791 66.9355 28.2164C68.4328 33.1249 68.4237 38.4072 66.9081 44.0634C65.3925 49.7197 62.7598 54.2968 59.01 57.7948C55.2187 61.3054 50.4877 63.6366 45.3941 64.5042C40.0464 65.4872 34.2775 65.1494 28.0872 63.4907L8.589 58.2662C6.47935 57.7009 4.68066 56.3207 3.58862 54.4293C2.49659 52.5378 2.20066 50.29 2.76594 48.1803L13.4178 8.42703ZM31.2015 48.6128C35.2261 49.6911 38.754 49.4014 41.7854 47.7437C44.8168 46.086 46.8936 43.1628 48.016 38.9743C49.1428 34.7689 48.8058 31.199 47.0049 28.2644C45.204 25.3299 42.2918 23.3214 38.2684 22.2388L33.5752 20.9813C32.7387 20.7571 31.8475 20.8745 31.0975 21.3075C30.3475 21.7405 29.8002 22.4537 29.5761 23.2902L24.1995 43.3561C23.9753 44.1926 24.0927 45.0839 24.5257 45.8338C24.9587 46.5838 25.6719 47.1311 26.5084 47.3552L31.2015 48.6128Z" fill="#E85C5C"/>
<mask id="mask0" mask-type="alpha" maskUnits="userSpaceOnUse" x="0" y="0" width="75" height="72">
<path d="M13.4178 8.42703C13.6969 7.38198 14.1794 6.40222 14.8375 5.5438C15.4957 4.68538 16.3166 3.96515 17.2534 3.42431C18.1901 2.88346 19.2244 2.53263 20.2968 2.39186C21.3693 2.2511 22.459 2.32318 23.5036 2.60397L42.9829 7.82342C49.1816 9.48435 54.3466 12.0763 58.4778 15.5991C62.4615 18.8952 65.4002 23.2791 66.9355 28.2164C68.4328 33.1249 68.4237 38.4072 66.9081 44.0634C65.3925 49.7197 62.7598 54.2968 59.01 57.7948C55.2187 61.3054 50.4877 63.6366 45.3941 64.5042C40.0464 65.4872 34.2775 65.1494 28.0872 63.4907L8.589 58.2662C6.47935 57.7009 4.68066 56.3207 3.58862 54.4293C2.49659 52.5378 2.20066 50.29 2.76594 48.1803L13.4178 8.42703ZM31.2015 48.6128C35.2261 49.6911 38.754 49.4014 41.7854 47.7437C44.8168 46.086 46.8936 43.1628 48.016 38.9743C49.1428 34.7689 48.8058 31.199 47.0049 28.2644C45.204 25.3299 42.2918 23.3214 38.2684 22.2388L33.5752 20.9813C32.7387 20.7571 31.8475 20.8745 31.0975 21.3075C30.3475 21.7405 29.8002 22.4537 29.5761 23.2902L24.1995 43.3561C23.9753 44.1926 24.0927 45.0839 24.5257 45.8338C24.9587 46.5838 25.6719 47.1311 26.5084 47.3552L31.2015 48.6128Z" fill="#E85C5C"/>
</mask>
<g mask="url(#mask0)">
<path d="M12.6377 -2.29397L32.2105 22.8977L25.3169 57.2188L-11.8944 29.7564L12.6377 -2.29397Z" fill="url(#paint0_linear)"/>
</g>
<defs>
<linearGradient id="paint0_linear" x1="15.0061" y1="-1.99668" x2="9.09994" y2="45.0563" gradientUnits="userSpaceOnUse">
<stop stop-color="#630101"/>
<stop offset="1" stop-color="#E85C5C" stop-opacity="0"/>
</linearGradient>
</defs>
</svg>
