<svg width="180" height="182" viewBox="0 0 180 182" fill="none" xmlns="http://www.w3.org/2000/svg">
<path d="M18.2745 11.796C18.6719 10.3082 19.3587 8.91337 20.2957 7.69129C21.2326 6.46921 22.4014 5.44385 23.735 4.67389C25.0686 3.90392 26.5409 3.40445 28.0678 3.20406C29.5946 3.00366 31.146 3.10627 32.6331 3.50602L60.3646 10.9366C69.1893 13.3012 76.5424 16.9912 82.4239 22.0065C88.0952 26.6989 92.2788 32.94 94.4645 39.9689C96.5962 46.9569 96.5832 54.477 94.4255 62.5295C92.2679 70.5819 88.5199 77.0981 83.1814 82.078C77.784 87.0758 71.0487 90.3947 63.7972 91.6298C56.1841 93.0293 47.9712 92.5483 39.1584 90.1869L11.4 82.7491C8.39662 81.9443 5.83593 79.9794 4.28127 77.2867C2.7266 74.5939 2.3053 71.3939 3.11006 68.3905L18.2745 11.796ZM43.5922 69.0061C49.3217 70.5413 54.3442 70.1289 58.6598 67.7688C62.9754 65.4088 65.9321 61.2473 67.5299 55.2843C69.1341 49.2974 68.6543 44.2151 66.0904 40.0374C63.5266 35.8597 59.3808 33.0002 53.6529 31.459L46.9715 29.6687C45.7806 29.3496 44.5117 29.5167 43.444 30.1331C42.3763 30.7496 41.5972 31.7649 41.2781 32.9558L33.6237 61.5224C33.3046 62.7133 33.4717 63.9822 34.0881 65.0499C34.7045 66.1176 35.7199 66.8967 36.9108 67.2158L43.5922 69.0061Z" fill="#E85C5C"/>
<mask id="mask0" mask-type="alpha" maskUnits="userSpaceOnUse" x="0" y="0" width="106" height="103">
<path d="M18.2745 11.796C18.6719 10.3082 19.3587 8.91337 20.2957 7.69129C21.2326 6.46921 22.4014 5.44385 23.735 4.67389C25.0686 3.90392 26.5409 3.40445 28.0678 3.20406C29.5946 3.00366 31.146 3.10627 32.6331 3.50602L60.3646 10.9366C69.1893 13.3012 76.5424 16.9912 82.4239 22.0065C88.0952 26.6989 92.2788 32.94 94.4645 39.9689C96.5962 46.9569 96.5832 54.477 94.4255 62.5295C92.2679 70.5819 88.5199 77.0981 83.1814 82.078C77.784 87.0758 71.0487 90.3947 63.7972 91.6298C56.1841 93.0293 47.9712 92.5483 39.1584 90.1869L11.4 82.7491C8.39662 81.9443 5.83593 79.9794 4.28127 77.2867C2.7266 74.5939 2.3053 71.3939 3.11006 68.3905L18.2745 11.796ZM43.5922 69.0061C49.3217 70.5413 54.3442 70.1289 58.6598 67.7688C62.9754 65.4088 65.9321 61.2473 67.5299 55.2843C69.1341 49.2974 68.6543 44.2151 66.0904 40.0374C63.5266 35.8597 59.3808 33.0002 53.6529 31.459L46.9715 29.6687C45.7806 29.3496 44.5117 29.5167 43.444 30.1331C42.3763 30.7496 41.5972 31.7649 41.2781 32.9558L33.6237 61.5224C33.3046 62.7133 33.4717 63.9822 34.0881 65.0499C34.7045 66.1176 35.7199 66.8967 36.9108 67.2158L43.5922 69.0061Z" fill="#E85C5C"/>
</mask>
<g mask="url(#mask0)">
<path d="M17.1638 -3.4669L45.0285 32.3971L35.2145 81.258L-17.761 42.1614L17.1638 -3.4669Z" fill="url(#paint0_linear)"/>
</g>
<path d="M102.837 43.6383C102.837 41.8188 104.312 40.3439 106.132 40.3439H106.634C108.454 40.3439 109.929 41.8188 109.929 43.6383V88.6726C109.929 90.492 108.454 91.967 106.634 91.967H106.132C104.312 91.967 102.837 90.492 102.837 88.6726V43.6383Z" fill="#E85C5C"/>
<path d="M116.51 70.8046C116.51 68.9852 117.985 67.5102 119.805 67.5102H120.307C122.127 67.5102 123.602 68.9852 123.602 70.8046V88.6726C123.602 90.492 122.127 91.967 120.307 91.967H119.805C117.985 91.967 116.51 90.492 116.51 88.6726V70.8046ZM120.056 64.1008C118.753 64.1008 117.692 63.722 116.874 62.9644C116.056 62.2067 115.647 61.2673 115.647 60.1459C115.647 59.0246 116.056 58.0852 116.874 57.3275C117.692 56.5699 118.753 56.1911 120.056 56.1911C121.359 56.1911 122.42 56.5547 123.238 57.2821C124.056 58.0094 124.465 58.9186 124.465 60.0096C124.465 61.1915 124.056 62.1764 123.238 62.9644C122.42 63.722 121.359 64.1008 120.056 64.1008Z" fill="#E85C5C"/>
<path d="M138.411 92.3306C136.381 92.3306 134.396 92.0882 132.456 91.6033C131.538 91.3593 130.707 91.0881 129.965 90.7896C128.679 90.2722 128.252 88.7627 128.836 87.505C129.549 85.9689 131.468 85.4119 133.063 85.9814C133.409 86.1046 133.767 86.2209 134.138 86.3301C135.684 86.7544 137.199 86.9665 138.684 86.9665C141.684 86.9665 143.184 86.224 143.184 84.739C143.184 84.042 142.775 83.542 141.957 83.2389C141.139 82.9359 139.881 82.6783 138.184 82.4661C136.184 82.1631 134.532 81.8145 133.229 81.4206C131.926 81.0266 130.789 80.3296 129.82 79.3295C128.88 78.3294 128.41 76.905 128.41 75.0564C128.41 73.5108 128.85 72.147 129.729 70.9651C130.638 69.7529 131.941 68.8134 133.638 68.1467C135.366 67.4799 137.396 67.1466 139.73 67.1466C141.457 67.1466 143.169 67.3436 144.866 67.7375C145.567 67.8849 146.217 68.0572 146.817 68.2543C148.19 68.7048 148.673 70.2799 148.06 71.5877C147.367 73.0673 145.563 73.6138 144 73.1346C142.644 72.7187 141.221 72.5107 139.73 72.5107C138.214 72.5107 137.078 72.7228 136.32 73.1471C135.563 73.5714 135.184 74.1169 135.184 74.7836C135.184 75.5413 135.593 76.0716 136.411 76.3747C137.229 76.6777 138.533 76.9656 140.321 77.2384C142.321 77.5717 143.957 77.9354 145.23 78.3294C146.503 78.6931 147.609 79.3749 148.549 80.375C149.488 81.3751 149.958 82.7692 149.958 84.5572C149.958 86.0725 149.503 87.4211 148.594 88.603C147.685 89.7849 146.351 90.7093 144.594 91.376C142.866 92.0124 140.805 92.3306 138.411 92.3306Z" fill="#E85C5C"/>
<path d="M169.198 67.1466C172.229 67.1466 174.668 68.0557 176.517 69.8741C178.396 71.6924 179.335 74.3896 179.335 77.9657V88.6726C179.335 90.492 177.86 91.967 176.041 91.967H175.538C173.719 91.967 172.244 90.492 172.244 88.6726V79.0567C172.244 77.1172 171.82 75.6776 170.971 74.7382C170.122 73.7684 168.895 73.2835 167.289 73.2835C165.501 73.2835 164.076 73.8441 163.016 74.9654C161.955 76.0565 161.425 77.693 161.425 79.875V88.6726C161.425 90.492 159.95 91.967 158.13 91.967H157.628C155.808 91.967 154.333 90.492 154.333 88.6726V43.6383C154.333 41.8188 155.808 40.3439 157.628 40.3439H158.13C159.95 40.3439 161.425 41.8188 161.425 43.6383V65.9997C161.425 67.4966 163.427 68.4309 164.834 67.9194C166.168 67.4042 167.622 67.1466 169.198 67.1466Z" fill="#E85C5C"/>
<path d="M70.3601 130.726C70.5843 129.887 70.9719 129.099 71.5006 128.41C72.0293 127.72 72.6887 127.142 73.4412 126.707C74.1937 126.273 75.0245 125.991 75.8861 125.878C76.7476 125.765 77.623 125.823 78.4621 126.048L94.1098 130.241C99.0893 131.575 103.238 133.657 106.557 136.487C109.757 139.135 112.118 142.657 113.351 146.623C114.554 150.566 114.547 154.809 113.329 159.353C112.112 163.897 109.997 167.573 106.984 170.383C103.939 173.203 100.138 175.076 96.0467 175.773C91.751 176.563 87.1167 176.291 82.1441 174.959L66.4811 170.762C64.7864 170.308 63.3415 169.199 62.4643 167.68C61.5871 166.16 61.3493 164.355 61.8034 162.66L70.3601 130.726ZM84.6458 163.007C87.8788 163.874 90.7128 163.641 93.1479 162.309C95.583 160.978 97.2514 158.629 98.1529 155.265C99.0581 151.887 98.7874 149.019 97.3407 146.661C95.894 144.304 93.5547 142.691 90.3227 141.821L86.5526 140.811C85.8807 140.631 85.1647 140.725 84.5622 141.073C83.9598 141.421 83.5202 141.994 83.3401 142.666L79.021 158.785C78.841 159.457 78.9353 160.173 79.2831 160.775C79.6309 161.377 80.2038 161.817 80.8758 161.997L84.6458 163.007Z" fill="#E85C5C"/>
<mask id="mask1" mask-type="alpha" maskUnits="userSpaceOnUse" x="60" y="124" width="60" height="58">
<path d="M70.3601 130.726C70.5843 129.887 70.9719 129.099 71.5006 128.41C72.0293 127.72 72.6887 127.142 73.4412 126.707C74.1937 126.273 75.0245 125.991 75.8861 125.878C76.7476 125.765 77.623 125.823 78.4621 126.048L94.1098 130.241C99.0893 131.575 103.238 133.657 106.557 136.487C109.757 139.135 112.118 142.657 113.351 146.623C114.554 150.566 114.547 154.809 113.329 159.353C112.112 163.897 109.997 167.573 106.984 170.383C103.939 173.203 100.138 175.076 96.0467 175.773C91.751 176.563 87.1167 176.291 82.1441 174.959L66.4811 170.762C64.7864 170.308 63.3415 169.199 62.4643 167.68C61.5871 166.16 61.3493 164.355 61.8034 162.66L70.3601 130.726ZM84.6458 163.007C87.8788 163.874 90.7128 163.641 93.1479 162.309C95.583 160.978 97.2514 158.629 98.1529 155.265C99.0581 151.887 98.7874 149.019 97.3407 146.661C95.894 144.304 93.5547 142.691 90.3227 141.821L86.5526 140.811C85.8807 140.631 85.1647 140.725 84.5622 141.073C83.9598 141.421 83.5202 141.994 83.3401 142.666L79.021 158.785C78.841 159.457 78.9353 160.173 79.2831 160.775C79.6309 161.377 80.2038 161.817 80.8758 161.997L84.6458 163.007Z" fill="#E85C5C"/>
</mask>
<g mask="url(#mask1)">
<path d="M69.7331 122.114L85.456 142.35L79.9184 169.921L50.0264 147.86L69.7331 122.114Z" fill="url(#paint1_linear)"/>
</g>
<defs>
<linearGradient id="paint0_linear" x1="20.5356" y1="-3.04366" x2="12.1274" y2="63.9429" gradientUnits="userSpaceOnUse">
<stop stop-color="#630101"/>
<stop offset="1" stop-color="#E85C5C" stop-opacity="0"/>
</linearGradient>
<linearGradient id="paint1_linear" x1="71.6357" y1="122.353" x2="66.8912" y2="160.15" gradientUnits="userSpaceOnUse">
<stop stop-color="#630101"/>
<stop offset="1" stop-color="#E85C5C" stop-opacity="0"/>
</linearGradient>
</defs>
</svg>
