<svg width="157" height="132" viewBox="0 0 157 132" fill="none" xmlns="http://www.w3.org/2000/svg">
<path d="M154.645 70.4648C154.645 63.24 148.788 57.3832 141.563 57.3832H100.993V70.4648H154.645V70.4648Z" fill="#71325C"/>
<line y1="-1" x2="5.84097" y2="-1" transform="matrix(4.37114e-08 -1 -1 -4.37114e-08 148.096 70.4648)" stroke="#FFC0AC" stroke-width="2"/>
<line y1="-1" x2="5.84097" y2="-1" transform="matrix(4.37114e-08 -1 -1 -4.37114e-08 143.071 70.4648)" stroke="#FFC0AC" stroke-width="2"/>
<line y1="-1" x2="5.84097" y2="-1" transform="matrix(4.37114e-08 -1 -1 -4.37114e-08 138.046 70.4648)" stroke="#FFC0AC" stroke-width="2"/>
<path d="M0.732643 70.4648C0.732643 70.4648 0.732643 70.4648 0.732643 70.4648C0.732646 34.6578 26.8157 5.63049 58.9907 5.63049C91.1658 5.6305 117.249 34.6578 117.249 70.4648L0.732643 70.4648Z" fill="#FF6837"/>
<mask id="mask0" mask-type="alpha" maskUnits="userSpaceOnUse" x="0" y="5" width="118" height="66">
<path d="M0.732643 70.4648C0.732643 70.4648 0.732643 70.4648 0.732643 70.4648C0.732646 34.6578 26.8157 5.63049 58.9907 5.63049C91.1658 5.6305 117.249 34.6578 117.249 70.4648L0.732643 70.4648Z" fill="#FF6837"/>
</mask>
<g mask="url(#mask0)">
<path d="M58.9907 28.3631L64.8623 5.63049H53.1192L58.9907 28.3631Z" fill="#FFC0AC"/>
<path d="M20.4688 62.3093L2.09106 54.2579L0.73273 65.9222L20.4688 62.3093Z" fill="#FFC0AC"/>
<path d="M41.8999 31.2998L35.2971 10.1805L25.4206 16.5332L41.8999 31.2998Z" fill="#FFC0AC"/>
<path d="M76.4125 29.9827L82.6846 9.37756L92.5611 15.7302L76.4125 29.9827Z" fill="#FFC0AC"/>
<path d="M71.733 14.415L68.2654 5.6571L79.4978 9.08272L71.733 14.415Z" fill="#FFC0AC"/>
<path d="M45.3201 14.6505L37.5149 9.37756L48.7208 5.86632L45.3201 14.6505Z" fill="#FFC0AC"/>
<path d="M24.1774 27.6325L14.7825 26.9543L22.7446 18.3227L24.1774 27.6325Z" fill="#FFC0AC"/>
<path d="M11.4441 49.1518L2.55371 52.2642L6.42857 41.1787L11.4441 49.1518Z" fill="#FFC0AC"/>
<path d="M29.2983 46.3501L6.42847 38.9213L12.6738 28.9765L29.2983 46.3501Z" fill="#FFC0AC"/>
</g>
<path d="M87.1105 9.49684L107.524 11.3526L88.9662 29.91L87.1105 9.49684Z" fill="#71325C"/>
<path d="M146.937 9.49684L126.524 11.3526L145.081 29.91L146.937 9.49684Z" fill="#71325C"/>
<circle r="30.5436" transform="matrix(-1 0 0 1 117.249 39.9212)" fill="#FFC0AC"/>
<path d="M129.321 54.0552L105.176 29.91L97.484 37.6023" stroke="#71325C" stroke-width="2"/>
<path d="M105.176 54.0552L129.321 29.91L137.014 37.6023" stroke="#71325C" stroke-width="2"/>
<path d="M109.871 34.2263L105.176 38.9213" stroke="#71325C" stroke-width="2"/>
<path d="M124.176 34.2263L128.871 38.9213" stroke="#71325C" stroke-width="2"/>
<path d="M100.679 47.9366H77.9612" stroke="#71325C" stroke-width="2"/>
<path d="M100.993 51.2264L85.7052 56.4367" stroke="#71325C" stroke-width="2"/>
<path d="M100.993 44.6469L80.5486 38.9213" stroke="#71325C" stroke-width="2"/>
<path d="M133.497 47.9366H156.216" stroke="#71325C" stroke-width="2"/>
<path d="M133.183 51.2264L148.472 56.4367" stroke="#71325C" stroke-width="2"/>
<path d="M133.183 44.6469L153.628 38.9213" stroke="#71325C" stroke-width="2"/>
<path d="M0.732666 70.4648L0.732668 125.598C0.732669 128.744 3.28275 131.294 6.42843 131.294V131.294C9.57411 131.294 12.1242 128.744 12.1242 125.598L12.1242 70.4648L0.732666 70.4648Z" fill="#FF6837"/>
<mask id="mask1" mask-type="alpha" maskUnits="userSpaceOnUse" x="86" y="9" width="62" height="62">
<circle r="30.5436" transform="matrix(-1 0 0 1 117.249 39.9212)" fill="#FFC0AC"/>
</mask>
<g mask="url(#mask1)">
<path d="M117.249 21.2656L121.185 9.37756H113.312L117.249 21.2656Z" fill="#FF6837"/>
<path d="M107.955 18.7793L111.891 9.37756H104.018L107.955 18.7793Z" fill="#FF6837"/>
<path d="M126.543 18.7793L130.479 9.37756H122.606L126.543 18.7793Z" fill="#FF6837"/>
</g>
<mask id="mask2" mask-type="alpha" maskUnits="userSpaceOnUse" x="0" y="70" width="13" height="62">
<path d="M0.732666 70.4648L0.732668 125.598C0.732669 128.744 3.28275 131.294 6.42843 131.294V131.294C9.57411 131.294 12.1242 128.744 12.1242 125.598L12.1242 70.4648L0.732666 70.4648Z" fill="#FF6837"/>
</mask>
<g mask="url(#mask2)">
<path d="M12.1242 76.3364L0.732666 70.4648L0.732667 82.208L12.1242 76.3364Z" fill="#FFC0AC"/>
<path d="M0.732751 88.0223L12.1243 82.1508L12.1243 93.8939L0.732751 88.0223Z" fill="#FFC0AC"/>
<path d="M12.1242 99.7082L0.732666 93.8367L0.732667 105.58L12.1242 99.7082Z" fill="#FFC0AC"/>
<path d="M0.732751 110.745L12.1243 104.873L12.1243 116.616L0.732751 110.745Z" fill="#FFC0AC"/>
<path d="M6.2527 119.903L12.1243 131.294H0.381138L6.2527 119.903Z" fill="#71325C"/>
<path d="M0.556902 119.903L6.42847 131.294H-5.31466L0.556902 119.903Z" fill="#71325C"/>
<path d="M12.3001 119.903L18.1716 131.294H6.4285L12.3001 119.903Z" fill="#71325C"/>
</g>
<path d="M117.249 70.4648C117.249 63.24 111.392 57.3832 104.167 57.3832H63.5973V70.4648H117.249V70.4648Z" fill="#FF6837"/>
<line y1="-1" x2="5.84097" y2="-1" transform="matrix(4.37114e-08 -1 -1 -4.37114e-08 111.043 70.4648)" stroke="#71325C" stroke-width="2"/>
<line y1="-1" x2="5.84097" y2="-1" transform="matrix(4.37114e-08 -1 -1 -4.37114e-08 106.018 70.4648)" stroke="#71325C" stroke-width="2"/>
<line y1="-1" x2="5.84097" y2="-1" transform="matrix(4.37114e-08 -1 -1 -4.37114e-08 100.993 70.4648)" stroke="#71325C" stroke-width="2"/>
</svg>
