<svg width="244" height="99" viewBox="0 0 244 99" fill="none" xmlns="http://www.w3.org/2000/svg">
<path fill-rule="evenodd" clip-rule="evenodd" d="M0.730957 0.0804443C0.730957 0.0804545 0.730957 0.0804647 0.730957 0.0804749C0.730957 54.6069 44.9333 98.8093 99.4598 98.8093C153.986 98.8093 198.189 54.6069 198.189 0.0804749L0.730957 0.0804443Z" fill="#3093FF"/>
<path fill-rule="evenodd" clip-rule="evenodd" d="M99.4597 0.0804443C99.4597 0.0804494 99.4597 0.0804545 99.4597 0.0804596C99.4597 39.877 131.721 72.1384 171.518 72.1384C211.314 72.1384 243.576 39.877 243.576 0.0804596L99.4597 0.0804443Z" fill="#71325C"/>
<path fill-rule="evenodd" clip-rule="evenodd" d="M99.4597 0.0804443C99.4597 38.3913 129.357 69.7192 167.093 72.0048C186.235 53.9978 198.189 28.435 198.189 0.0804738L99.4597 0.0804443Z" fill="#E83E5B"/>
</svg>
