<svg width="243" height="99" viewBox="0 0 243 99" fill="none" xmlns="http://www.w3.org/2000/svg">
<path fill-rule="evenodd" clip-rule="evenodd" d="M0 0C0 1.01725e-05 0 2.03451e-05 0 3.05176e-05C0 54.5264 44.2024 98.7288 98.7288 98.7288C153.255 98.7288 197.458 54.5264 197.458 3.05176e-05L0 0Z" fill="#E83E5B"/>
<path fill-rule="evenodd" clip-rule="evenodd" d="M98.7288 0C98.7288 5.08626e-06 98.7288 1.01725e-05 98.7288 1.52588e-05C98.7288 39.7965 130.99 72.058 170.787 72.058C210.583 72.058 242.845 39.7965 242.845 1.52588e-05L98.7288 0Z" fill="#71325C"/>
<path fill-rule="evenodd" clip-rule="evenodd" d="M197.727 0.34513C197.727 28.5367 185.911 53.9685 166.961 71.9582C128.943 69.9694 98.7288 38.5132 98.7288 0H197.726C197.726 0.114996 197.727 0.23004 197.727 0.34513Z" fill="#3093FF"/>
</svg>
