<svg width="244" height="100" viewBox="0 0 244 100" fill="none" xmlns="http://www.w3.org/2000/svg">
<path fill-rule="evenodd" clip-rule="evenodd" d="M0.730957 0.383667C0.730957 0.383677 0.730957 0.383687 0.730957 0.383698C0.730957 54.9101 44.9333 99.1125 99.4598 99.1125C153.986 99.1125 198.189 54.9101 198.189 0.383698L0.730957 0.383667Z" fill="#FF6837"/>
<path fill-rule="evenodd" clip-rule="evenodd" d="M99.4597 0.383667C99.4597 0.383672 99.4597 0.383677 99.4597 0.383682C99.4597 40.1802 131.721 72.4417 171.518 72.4417C211.314 72.4417 243.576 40.1802 243.576 0.383682L99.4597 0.383667Z" fill="#E83E5B"/>
<path fill-rule="evenodd" clip-rule="evenodd" d="M99.4597 0.383667C99.4597 38.6945 129.357 70.0224 167.093 72.3081C186.235 54.301 198.189 28.7383 198.189 0.383696L99.4597 0.383667Z" fill="#71325C"/>
</svg>
