<svg width="243" height="99" viewBox="0 0 243 99" fill="none" xmlns="http://www.w3.org/2000/svg">
<path fill-rule="evenodd" clip-rule="evenodd" d="M0.0776367 0.113708C0.0776367 0.113719 0.0776367 0.113729 0.0776367 0.113739C0.0776367 54.6401 44.28 98.8425 98.8064 98.8425C153.333 98.8425 197.535 54.6401 197.535 0.113739L0.0776367 0.113708Z" fill="#3093FF"/>
<path fill-rule="evenodd" clip-rule="evenodd" d="M98.8064 0.113708C98.8064 0.113714 98.8064 0.113719 98.8064 0.113724C98.8064 39.9102 131.068 72.1717 170.864 72.1717C210.661 72.1717 242.922 39.9102 242.922 0.113724L98.8064 0.113708Z" fill="#E566BB"/>
<path fill-rule="evenodd" clip-rule="evenodd" d="M98.8064 0.113708C98.8064 38.4246 128.704 69.7524 166.44 72.0381C185.582 54.0311 197.535 28.4683 197.535 0.113738L98.8064 0.113708Z" fill="white"/>
</svg>
