<svg width="482" height="43" viewBox="0 0 482 43" fill="none" xmlns="http://www.w3.org/2000/svg">
<path fill-rule="evenodd" clip-rule="evenodd" d="M153.643 21.7119L0.421387 21.7119L0.421387 20.2119L153.643 20.2119L153.643 21.7119Z" fill="#071626"/>
<path fill-rule="evenodd" clip-rule="evenodd" d="M481.09 21.7119L327.869 21.7119L327.869 20.2119L481.09 20.2119L481.09 21.7119Z" fill="#071626"/>
<path d="M240.75 1.27686L258.26 11.3865V31.6058L240.75 41.7155L223.239 31.6058V11.3865L240.75 1.27686Z" fill="#E83E5B"/>
<path d="M240.711 21.5013L222.482 10.9772L240.711 0.453125L240.711 21.5013Z" fill="#F291A2"/>
<path d="M240.71 21.4999L240.71 0.45166L258.938 10.9758L240.71 21.4999Z" fill="#F7ADBA"/>
<path d="M240.71 21.4953L258.938 10.9712L258.938 32.0194L240.71 21.4953Z" fill="#F291A2"/>
<path d="M240.71 21.4956L258.938 32.0197L240.71 42.5438L240.71 21.4956Z" fill="#E83E5B"/>
<path d="M240.71 21.5L240.71 42.5482L222.482 32.0241L240.71 21.5Z" fill="#F2617A"/>
<path d="M240.71 21.5002L222.482 32.0243L222.482 10.9761L240.71 21.5002Z" fill="#F7ADBA"/>
<path d="M190.152 8.67236L201.085 15.084V27.9073L190.152 34.319L179.219 27.9073V15.084L190.152 8.67236Z" fill="#103155"/>
<path d="M190.607 21.501L178.772 14.668L190.607 7.83496L190.607 21.501Z" fill="#6696CC"/>
<path d="M190.606 21.5L190.606 7.83398L202.441 14.667L190.606 21.5Z" fill="#8AB5E5"/>
<path d="M190.606 21.4971L202.441 14.6641L202.441 28.3301L190.606 21.4971Z" fill="#6696CC"/>
<path d="M190.606 21.4971L202.441 28.3301L190.606 35.1631L190.606 21.4971Z" fill="#103155"/>
<path d="M190.606 21.5L190.606 35.166L178.771 28.333L190.606 21.5Z" fill="#184980"/>
<path d="M190.606 21.5L178.771 28.333L178.771 14.667L190.606 21.5Z" fill="#8AB5E5"/>
<path d="M290.903 8.67334L302.231 15.0848V27.9076L290.903 34.319L279.574 27.9076V15.0848L290.903 8.67334Z" fill="#103155"/>
<path d="M290.815 21.501L278.98 14.668L290.815 7.83496L290.815 21.501Z" fill="#6696CC"/>
<path d="M290.814 21.5L290.814 7.83398L302.649 14.667L290.814 21.5Z" fill="#8AB5E5"/>
<path d="M290.814 21.4971L302.649 14.6641L302.649 28.3301L290.814 21.4971Z" fill="#6696CC"/>
<path d="M290.814 21.4971L302.649 28.3301L290.814 35.1631L290.814 21.4971Z" fill="#103155"/>
<path d="M290.814 21.5L290.814 35.166L278.979 28.333L290.814 21.5Z" fill="#184980"/>
<path d="M290.814 21.5L278.979 28.333L278.979 14.667L290.814 21.5Z" fill="#8AB5E5"/>
</svg>
