<svg width="298" height="392" viewBox="0 0 298 392" fill="none" xmlns="http://www.w3.org/2000/svg">
<path d="M213.832 257.661L245.411 275.894M213.832 330.591L182.252 312.359V275.894" stroke="#071626" stroke-width="2" stroke-dasharray="10 5"/>
<path d="M213.832 257.661L182.252 275.894M245.411 275.894V312.359L213.832 330.591" stroke="#071626" stroke-width="3"/>
<path d="M296.569 246.358L213.832 198.59L131.095 246.358V341.894M296.569 341.894L213.832 389.663" stroke="#071626" stroke-width="2" stroke-dasharray="10 5"/>
<path d="M213.832 103.053L213.832 388.763" stroke="#071626" stroke-width="3"/>
<path d="M131.095 246.358L296.569 341.894" stroke="#071626" stroke-width="3"/>
<path d="M296.569 246.358L84.2546 368.937" stroke="#071626" stroke-width="3" stroke-dasharray="10 5"/>
<path d="M131.095 114.356L99.5151 132.589M162.674 132.589V169.054L131.095 187.286" stroke="#071626" stroke-width="3"/>
<path d="M213.832 103.053L131.095 55.2845L48.3575 103.053M131.095 246.358L48.3574 198.589" stroke="#071626" stroke-width="2" stroke-dasharray="10 5"/>
<path d="M131.095 0.298828V245.458" stroke="#071626" stroke-width="3"/>
<path d="M48.3575 103.053L213.832 198.589" stroke="#071626" stroke-width="3"/>
<path d="M213.832 103.053L1.51742 225.632" stroke="#071626" stroke-width="3" stroke-dasharray="10 5"/>
</svg>
