<svg width="41" height="51" viewBox="0 0 41 51" fill="none" xmlns="http://www.w3.org/2000/svg">
<path fill-rule="evenodd" clip-rule="evenodd" d="M0.47301 28.56C0.422053 28.5297 0.390839 28.4747 0.390839 28.4154V28.4154V2.66403C0.390839 1.89099 1.37475 1.5627 1.83894 2.18086L8.36524 10.872L11.9995 15.7118L21.5319 28.4132C21.5329 28.4146 21.5345 28.4154 21.5363 28.4154V28.4154C21.5379 28.4154 21.5395 28.4162 21.5405 28.4175L37.7023 48.9403C38.2544 49.6414 37.4247 50.5862 36.6581 50.1293L0.47301 28.56ZM26.6682 28.0907C26.82 28.295 27.0595 28.4154 27.3141 28.4154H39.5862C40.0306 28.4154 40.3908 28.0551 40.3908 27.6107V14.3339C40.3908 6.55691 34.0863 0.252411 26.3093 0.252411H7.57997C6.91852 0.252411 6.53959 1.00614 6.93413 1.53704L13.6303 10.5473C13.7822 10.7515 14.0217 10.872 14.2762 10.872H27.5163C30.1827 10.872 32.3443 13.0335 32.3443 15.6999V18.1139C32.3443 18.5583 31.984 18.9185 31.5396 18.9185H21.4522C20.7908 18.9185 20.4118 19.6723 20.8064 20.2031L26.6682 28.0907Z" fill="#103155"/>
</svg>
