<svg width="36" height="44" viewBox="0 0 36 44" fill="none" xmlns="http://www.w3.org/2000/svg">
<path fill-rule="evenodd" clip-rule="evenodd" d="M0.462738 25.0216C0.418151 24.995 0.390839 24.9469 0.390839 24.895V24.895V2.36258C0.390839 1.68616 1.25176 1.39891 1.65793 1.9398L7.36844 9.54452L10.5485 13.7794L18.8893 24.8931C18.8902 24.8943 18.8916 24.895 18.8931 24.895V24.895C18.8945 24.895 18.8959 24.8957 18.8968 24.8968L33.0384 42.8543C33.5215 43.4678 32.7955 44.2945 32.1247 43.8947L0.462738 25.0216ZM23.3835 24.6109C23.5164 24.7897 23.726 24.895 23.9487 24.895H34.6868C35.0756 24.895 35.3908 24.5798 35.3908 24.1909V12.5737C35.3908 5.76885 29.8744 0.252411 23.0695 0.252411H6.68133C6.10256 0.252411 5.77099 0.911926 6.11622 1.37646L11.9754 9.26041C12.1082 9.43916 12.3178 9.54451 12.5405 9.54451H24.1256C26.4587 9.54451 28.3501 11.4359 28.3501 13.769V15.8812C28.3501 16.27 28.0349 16.5853 27.646 16.5853H18.8195C18.2408 16.5853 17.9092 17.2448 18.2544 17.7093L23.3835 24.6109Z" fill="#103155"/>
</svg>
