<svg width="36" height="36" viewBox="0 0 36 36" fill="none" xmlns="http://www.w3.org/2000/svg">
<path fill-rule="evenodd" clip-rule="evenodd" d="M35.3994 1.81173C35.3994 1.00631 34.7465 0.353394 33.9411 0.353394H1.85778C1.05236 0.353394 0.399445 1.00631 0.399445 1.81173V33.8951C0.399445 34.7005 1.05236 35.3534 1.85778 35.3534H14.1628C14.9682 35.3534 15.6211 34.7005 15.6211 33.8951V25.8742C15.6211 25.0688 16.274 24.4159 17.0795 24.4159H18.5378C19.3432 24.4159 19.9961 25.0688 19.9961 25.8742V33.8951C19.9961 34.7005 20.649 35.3534 21.4545 35.3534H33.9411C34.7465 35.3534 35.3994 34.7005 35.3994 33.8951V21.5896C35.3994 20.7842 34.7465 20.1313 33.9411 20.1313H25.9203C25.1149 20.1313 24.4619 19.4784 24.4619 18.673V17.2146C24.4619 16.4092 25.1149 15.7563 25.9203 15.7563L33.9411 15.7563C34.7465 15.7563 35.3994 15.1034 35.3994 14.298V1.81173ZM10.4482 7.852C10.4482 7.04659 9.79529 6.39367 8.98987 6.39367H7.53136C6.72594 6.39367 6.07302 7.04659 6.07302 7.852V9.31034C6.07302 10.1158 6.72594 10.7687 7.53136 10.7687H8.98987C9.79529 10.7687 10.4482 10.1158 10.4482 9.31034V7.852Z" fill="#103155"/>
</svg>
