<svg width="159" height="183" viewBox="0 0 159 183" fill="none" xmlns="http://www.w3.org/2000/svg">
<path d="M76.9704 152.368L72.4104 156.608V162.898H68.4104V131.798H72.4104V151.618L84.4104 140.618H89.2204L79.9704 149.728L90.1304 162.728H85.2704L76.9704 152.368Z" fill="black"/>
<path d="M114.27 112.368V182.368H99.4004V178.238H110.16V116.498H99.4004V112.368H114.27Z" fill="black"/>
<path d="M44.2705 182.368V112.368H59.1405V116.498H48.3905V178.238H59.1405V182.368H44.2705Z" fill="black"/>
<path d="M39.464 40.7706L34.7364 45.162V51.665H30.6077V19.4753H34.7364V39.9616L47.1648 28.5944H52.155L42.5632 38.0496L53.069 51.4339H48.0262L39.464 40.7706Z" fill="black"/>
<path d="M72.2315 30.7059C73.9124 32.2608 74.7529 34.5615 74.7529 37.6397V51.4023H70.8447V48.3871C70.1315 49.481 69.1017 50.3312 67.8926 50.8245C66.4541 51.4153 64.9088 51.7014 63.3541 51.665C61.1455 51.789 58.9633 51.1347 57.1872 49.8159C56.4775 49.2257 55.9044 48.4884 55.5075 47.655C55.1106 46.8216 54.8994 45.912 54.8884 44.9889C54.8774 44.0659 55.0669 43.1515 55.4439 42.3089C55.8208 41.4663 56.3762 40.7156 57.0717 40.1086C58.5495 38.8899 60.8853 38.2806 64.079 38.2806H70.6241V37.4611C70.6737 36.7082 70.5604 35.9535 70.2921 35.2483C70.0238 34.5431 69.6067 33.9039 69.0693 33.3744C67.7909 32.351 66.175 31.8448 64.5413 31.9561C63.1935 31.9564 61.8552 32.1801 60.5806 32.618C59.3914 33.0085 58.284 33.6138 57.3133 34.404L55.5903 31.3048C56.8393 30.3205 58.266 29.5858 59.7927 29.1406C61.4954 28.6245 63.2664 28.3694 65.0455 28.3841C68.1553 28.3841 70.5506 29.1581 72.2315 30.7059ZM68.1237 47.4206C69.2595 46.7244 70.1373 45.677 70.6241 44.437V41.2852H64.2471C60.7487 41.2852 58.9942 42.4514 58.9942 44.8047C58.9783 45.3278 59.0929 45.8466 59.3277 46.3143C59.5625 46.782 59.91 47.1839 60.339 47.4837C61.425 48.2258 62.723 48.5945 64.037 48.5342C65.4768 48.5546 66.8933 48.1686 68.1237 47.4206Z" fill="black"/>
<path d="M103.665 28.5944V51.4024H99.7461V47.967C98.9073 49.149 97.7736 50.0908 96.4578 50.6985C95.0633 51.3478 93.5416 51.678 92.0034 51.665C89.3686 51.8097 86.7841 50.9029 84.8174 49.1437C83.0594 47.4627 82.184 44.9904 82.191 41.7266V28.5944H86.3197V41.2013C86.19 43.0147 86.7616 44.8086 87.9166 46.2126C88.5136 46.8018 89.2284 47.258 90.0143 47.5514C90.8001 47.8447 91.6391 47.9684 92.4761 47.9145C93.4286 47.9635 94.3808 47.812 95.2712 47.47C96.1615 47.128 96.9702 46.603 97.645 45.9289C98.9863 44.3873 99.6657 42.3791 99.536 40.3398V28.5944H103.665Z" fill="black"/>
<path d="M112.7 50.9086C111.246 50.5338 109.876 49.8848 108.666 48.9966L110.378 45.7398C111.491 46.516 112.727 47.0985 114.034 47.4627C115.444 47.8923 116.909 48.1118 118.383 48.1141C121.997 48.1141 123.804 47.0635 123.804 44.9623C123.815 44.6511 123.754 44.3416 123.627 44.0575C123.499 43.7734 123.309 43.5223 123.069 43.3234C122.532 42.8981 121.908 42.5967 121.241 42.441C120.506 42.2624 119.465 42.0522 118.089 41.8211C116.568 41.6041 115.065 41.274 113.593 40.8336C112.449 40.4648 111.419 39.8103 110.599 38.932C109.737 37.8994 109.305 36.5759 109.39 35.234C109.372 34.2569 109.598 33.2908 110.047 32.4231C110.497 31.5553 111.156 30.8135 111.964 30.2648C114.018 28.9208 116.447 28.2659 118.898 28.3947C120.435 28.3986 121.965 28.5855 123.458 28.9515C124.78 29.2432 126.044 29.7546 127.198 30.4644L125.475 33.7212C123.508 32.4851 121.22 31.8565 118.898 31.9142C117.51 31.8273 116.125 32.1255 114.895 32.7756C114.48 32.994 114.132 33.3219 113.89 33.7237C113.647 34.1255 113.519 34.586 113.519 35.0554C113.498 35.3903 113.558 35.7253 113.693 36.0323C113.829 36.3394 114.036 36.6096 114.297 36.8204C114.855 37.2749 115.508 37.5981 116.209 37.7659C116.965 37.9655 118.037 38.1966 119.36 38.4488C120.867 38.7007 122.355 39.0517 123.815 39.4993C124.926 39.8417 125.926 40.4724 126.714 41.3273C127.574 42.3276 128.008 43.625 127.923 44.9413C127.942 45.9208 127.708 46.8887 127.244 47.7517C126.781 48.6147 126.102 49.3437 125.275 49.8685C123.125 51.1727 120.632 51.7987 118.121 51.665C116.287 51.6756 114.461 51.4209 112.7 50.9086V50.9086Z" fill="black"/>
<path d="M4.58483 4.69371V66.4362H15.3848V70.5649H0.456055V0.564941H15.3848V4.69371H4.58483Z" fill="black"/>
<path d="M158.085 0.564941V70.5649H143.156V66.4362H153.945V4.69371H143.156V0.564941H158.085Z" fill="black"/>
</svg>
