<svg xmlns="http://www.w3.org/2000/svg" width="90.17" height="37.5" viewBox="0 0 90.17 37.5"><title>MCLogo</title><path d="M12.42,29.81a0.86,0.86,0,0,1-1.09-.52,5,5,0,0,0-5.23-3.4A6,6,0,0,0,.29,30.06a5.61,5.61,0,0,0,3.12,7c2.77,1.15,6.82,0,7.84-2.48A0.88,0.88,0,0,1,11.82,34a43.09,43.09,0,0,0,8.34-3.29c2.93-1.53,9.61-4.4,14.73-10.3a47.85,47.85,0,0,0,4.92-6.92,0.86,0.86,0,0,1,1.6.5c-0.32,3.09-.67,7.31-0.69,11.25a42.21,42.21,0,0,0,1.39,11.43,0.86,0.86,0,0,0,.8.61l1.28,0a0.85,0.85,0,0,0,.89-0.73,61.72,61.72,0,0,1,1.62-8.53,34.77,34.77,0,0,1,2.44-6,0.87,0.87,0,0,1,1.62.23,18,18,0,0,0,3.44,8c3.86,4.87,8.46,8,16.91,6.89a26.93,26.93,0,0,0,8.48-2.71,0.86,0.86,0,0,1,.7,0,9.22,9.22,0,0,0,5.8.29c1.1-.41,3.64-2.12,4-4.55,0.69-4.86-2.17-7.26-5.93-7.07-5.58.28-5.51,5.73-5.39,7.21a0.79,0.79,0,0,1-.26.66c-1.09,1-5.1,4-12.07,3.06C58.62,33,54.11,27.52,54.3,20.29S61.95,6,68,4.58c4.23-1,6.49-.28,7.47.23a0.81,0.81,0,0,1,.43.94C75.54,7,75,10.25,78,12.16c2.76,1.77,7.48.61,9.31-2.42,1.27-2.1.94-6.63-1.75-7.91a8.51,8.51,0,0,0-6.69-.43,0.87,0.87,0,0,1-.73,0C77,0.78,73.5-.72,67.43.41,60.51,1.69,55.64,7.77,52.82,11.16a87.36,87.36,0,0,0-6.37,10,0.87,0.87,0,0,1-1.62-.46L46.14,2.07a0.84,0.84,0,0,0-.64-0.86L44,0.81a0.86,0.86,0,0,0-1,.47,75,75,0,0,1-6.77,11.85A38.46,38.46,0,0,1,22,25.76,67.45,67.45,0,0,1,12.42,29.81Z"/></svg>