<svg width="71" height="71" viewBox="0 0 71 71" fill="none" xmlns="http://www.w3.org/2000/svg">
<circle cx="35.212" cy="35.7276" r="34.9961" transform="rotate(90 35.212 35.7276)" fill="#FFC0AC"/>
<path d="M35.212 70.7237C29.6893 70.7237 24.2449 69.4166 19.3241 66.9093C14.4033 64.4021 10.1458 60.7658 6.89956 56.2978C3.65337 51.8298 1.51071 46.6569 0.646757 41.2022C-0.217192 35.7474 0.222105 30.1656 1.92873 24.9132C3.63535 19.6607 6.56085 14.8867 10.466 10.9816C14.3712 7.07639 19.1452 4.1509 24.3976 2.44428C29.6501 0.737653 35.2319 0.298357 40.6866 1.16231C46.1414 2.02626 51.3142 4.16892 55.7822 7.41511L35.212 35.7276L35.212 70.7237Z" fill="#E83E5B"/>
</svg>
