<svg width="71" height="71" viewBox="0 0 71 71" fill="none" xmlns="http://www.w3.org/2000/svg">
<circle cx="35.3227" cy="35.8106" r="34.9961" transform="rotate(90 35.3227 35.8106)" fill="#103155"/>
<path d="M35.3227 70.8067C29.8 70.8067 24.3556 69.4996 19.4348 66.9923C14.514 64.4851 10.2565 60.8488 7.01028 56.3808C3.76408 51.9128 1.62142 46.7399 0.757477 41.2852C-0.106476 35.8304 0.332825 30.2486 2.03944 24.9962C3.74607 19.7437 6.67157 14.9698 10.5767 11.0646C14.4819 7.1594 19.2559 4.23391 24.5083 2.52728C29.7608 0.820661 35.3426 0.381365 40.7973 1.24531C46.2521 2.10926 51.4249 4.25193 55.8929 7.49812L35.3227 35.8106L35.3227 70.8067Z" fill="#E83E5B"/>
</svg>
