<svg width="128" height="31" viewBox="0 0 128 31" fill="none" xmlns="http://www.w3.org/2000/svg">
<rect x="110.028" y="9.88928" width="3.69848" height="20.8838" transform="rotate(-45 110.028 9.88928)" fill="#71325C"/>
<rect width="3.69848" height="20.8838" transform="matrix(-0.707107 -0.707107 -0.707107 0.707107 115.26 9.88928)" fill="#3093FF"/>
<rect x="85.7236" y="9.88928" width="3.69848" height="20.8838" transform="rotate(-45 85.7236 9.88928)" fill="#71325C"/>
<rect width="3.69848" height="20.8838" transform="matrix(-0.707107 -0.707107 -0.707107 0.707107 90.9561 9.88928)" fill="#FF6837"/>
<rect x="61.4192" y="9.88928" width="3.69848" height="20.8838" transform="rotate(-45 61.4192 9.88928)" fill="#71325C"/>
<rect width="3.69848" height="20.8838" transform="matrix(-0.707107 -0.707107 -0.707107 0.707107 66.6516 9.88928)" fill="#E83E5B"/>
<rect x="37.1147" y="9.88928" width="3.69848" height="20.8838" transform="rotate(-45 37.1147 9.88928)" fill="#71325C"/>
<rect x="57.825" y="24.6412" width="8.85023" height="8.85023" transform="rotate(-45 57.825 24.6412)" fill="#E83E5B"/>
<rect x="45.6509" y="7.25525" width="8.85023" height="8.85023" transform="rotate(-45 45.6509 7.25525)" fill="#E83E5B"/>
<rect x="82.0244" y="24.6412" width="8.85023" height="8.85023" transform="rotate(-45 82.0244 24.6412)" fill="#FF6837"/>
<rect x="70.1104" y="7.25525" width="8.85023" height="8.85023" transform="rotate(-45 70.1104 7.25525)" fill="#FF6837"/>
<rect x="33.457" y="24.6412" width="8.85023" height="8.85023" transform="rotate(-45 33.457 24.6412)" fill="#E566BB"/>
<rect x="21.2573" y="7.25525" width="8.85023" height="8.85023" transform="rotate(-45 21.2573 7.25525)" fill="#E566BB"/>
<rect x="9.15259" y="24.6412" width="8.85023" height="8.85023" transform="rotate(-45 9.15259 24.6412)" fill="#3093FF"/>
<rect x="106.419" y="24.6412" width="8.85023" height="8.85023" transform="rotate(-45 106.419 24.6412)" fill="#3093FF"/>
<rect x="94.2341" y="7.25525" width="8.85023" height="8.85023" transform="rotate(-45 94.2341 7.25525)" fill="#3093FF"/>
<rect width="3.69848" height="20.8838" transform="matrix(-0.707107 -0.707107 -0.707107 0.707107 42.3472 9.88928)" fill="#E566BB"/>
<rect x="12.8103" y="9.88928" width="3.69848" height="20.8838" transform="rotate(-45 12.8103 9.88928)" fill="#71325C"/>
<rect width="3.69848" height="20.8838" transform="matrix(-0.707107 -0.707107 -0.707107 0.707107 18.0427 9.88928)" fill="#3093FF"/>
</svg>
