<svg width="191" height="27" viewBox="0 0 191 27" fill="none" xmlns="http://www.w3.org/2000/svg">
<rect x="164.888" y="4.2439" width="5.5449" height="31.3098" transform="rotate(-45 164.888 4.2439)" fill="#71325C"/>
<rect width="5.5449" height="31.3098" transform="matrix(-0.707107 -0.707107 -0.707107 0.707107 172.733 4.2439)" fill="#3093FF"/>
<rect x="128.45" y="4.2439" width="5.5449" height="31.3098" transform="rotate(-45 128.45 4.2439)" fill="#71325C"/>
<rect width="5.5449" height="31.3098" transform="matrix(-0.707107 -0.707107 -0.707107 0.707107 136.294 4.2439)" fill="#FF6837"/>
<rect x="92.012" y="4.2439" width="5.5449" height="31.3098" transform="rotate(-45 92.012 4.2439)" fill="#71325C"/>
<rect width="5.5449" height="31.3098" transform="matrix(-0.707107 -0.707107 -0.707107 0.707107 99.8564 4.2439)" fill="#E83E5B"/>
<rect x="55.5737" y="4.2439" width="5.5449" height="31.3098" transform="rotate(-45 55.5737 4.2439)" fill="#71325C"/>
<rect width="5.5449" height="31.3098" transform="matrix(-0.707107 -0.707107 -0.707107 0.707107 63.4185 4.2439)" fill="#E566BB"/>
<rect x="19.1357" y="4.2439" width="5.5449" height="31.3098" transform="rotate(-45 19.1357 4.2439)" fill="#71325C"/>
<rect width="5.5449" height="31.3098" transform="matrix(-0.707107 -0.707107 -0.707107 0.707107 26.9805 4.2439)" fill="#3093FF"/>
</svg>
