<svg width="158" height="70" viewBox="0 0 158 70" fill="none" xmlns="http://www.w3.org/2000/svg">
<path d="M39.0079 40.2056L34.2803 44.597V51.1001H30.1515V18.9104H34.2803V39.3967L46.7086 28.0294H51.6988L42.1071 37.4846L52.6128 50.869H47.5701L39.0079 40.2056Z" fill="black"/>
<path d="M71.7754 30.141C73.4564 31.6958 74.2968 33.9966 74.2968 37.0748V50.8374H70.3887V47.8222C69.6755 48.916 68.6456 49.7663 67.4366 50.2595C65.9981 50.8503 64.4527 51.1365 62.8981 51.1C60.6894 51.224 58.5072 50.5698 56.7312 49.251C56.0215 48.6607 55.4484 47.9234 55.0515 47.09C54.6546 46.2566 54.4433 45.347 54.4323 44.424C54.4213 43.501 54.6109 42.5866 54.9878 41.744C55.3648 40.9014 55.9202 40.1506 56.6156 39.5437C58.0934 38.325 60.4292 37.7157 63.623 37.7157H70.1681V36.8962C70.2176 36.1433 70.1044 35.3886 69.8361 34.6834C69.5678 33.9781 69.1507 33.339 68.6132 32.8094C67.3349 31.7861 65.7189 31.2799 64.0852 31.3912C62.7375 31.3915 61.3991 31.6151 60.1245 32.053C58.9354 32.4435 57.8279 33.0489 56.8572 33.839L55.1343 30.7398C56.3833 29.7556 57.81 29.0208 59.3366 28.5756C61.0393 28.0595 62.8104 27.8045 64.5895 27.8192C67.6992 27.8192 70.0945 28.5931 71.7754 30.141ZM67.6677 46.8557C68.8034 46.1595 69.6812 45.112 70.1681 43.872V40.7203H63.7911C60.2926 40.7203 58.5382 41.8864 58.5382 44.2397C58.5223 44.7628 58.6369 45.2816 58.8717 45.7493C59.1064 46.217 59.454 46.6189 59.8829 46.9187C60.9689 47.6609 62.2669 48.0296 63.5809 47.9693C65.0208 47.9897 66.4372 47.6037 67.6677 46.8557Z" fill="black"/>
<path d="M103.209 28.0294V50.8375H99.2901V47.4021C98.4513 48.5841 97.3176 49.5258 96.0017 50.1336C94.6072 50.7828 93.0855 51.113 91.5473 51.1001C88.9125 51.2448 86.3281 50.3379 84.3613 48.5787C82.6034 46.8978 81.7279 44.4254 81.7349 41.1616V28.0294H85.8637V40.6364C85.7339 42.4497 86.3056 44.2436 87.4606 45.6476C88.0575 46.2368 88.7724 46.6931 89.5582 46.9864C90.344 47.2797 91.183 47.4035 92.0201 47.3495C92.9726 47.3985 93.9248 47.2471 94.8151 46.9051C95.7055 46.563 96.5141 46.038 97.1889 45.364C98.5302 43.8224 99.2097 41.8142 99.0799 39.7749V28.0294H103.209Z" fill="black"/>
<path d="M112.244 50.3437C110.79 49.9689 109.42 49.3199 108.209 48.4316L109.922 45.1748C111.035 45.951 112.271 46.5336 113.578 46.8978C114.988 47.3274 116.453 47.5468 117.927 47.5491C121.541 47.5491 123.348 46.4986 123.348 44.3974C123.359 44.0862 123.298 43.7767 123.171 43.4926C123.043 43.2085 122.853 42.9573 122.613 42.7585C122.076 42.3331 121.452 42.0318 120.785 41.876C120.049 41.6974 119.009 41.4873 117.633 41.2562C116.112 41.0392 114.609 40.7091 113.137 40.2686C111.993 39.8999 110.962 39.2454 110.143 38.3671C109.281 37.3345 108.849 36.0109 108.934 34.669C108.916 33.692 109.142 32.7258 109.591 31.8581C110.041 30.9904 110.7 30.2486 111.508 29.6998C113.562 28.3559 115.991 27.7009 118.442 27.8298C119.979 27.8336 121.509 28.0205 123.002 28.3866C124.324 28.6783 125.588 29.1896 126.742 29.8994L125.019 33.1562C123.052 31.9201 120.764 31.2916 118.442 31.3492C117.054 31.2624 115.669 31.5605 114.439 32.2107C114.024 32.4291 113.676 32.7569 113.434 33.1588C113.191 33.5606 113.063 34.0211 113.063 34.4904C113.042 34.8253 113.102 35.1603 113.237 35.4674C113.373 35.7745 113.579 36.0447 113.841 36.2554C114.399 36.71 115.052 37.0331 115.753 37.2009C116.509 37.4005 117.581 37.6317 118.904 37.8838C120.411 38.1358 121.899 38.4867 123.359 38.9344C124.47 39.2767 125.47 39.9075 126.258 40.7624C127.118 41.7627 127.552 43.0601 127.467 44.3764C127.486 45.3559 127.252 46.3237 126.788 47.1867C126.324 48.0497 125.646 48.7788 124.819 49.3036C122.669 50.6078 120.176 51.2338 117.665 51.1001C115.831 51.1107 114.005 50.8559 112.244 50.3437Z" fill="black"/>
<path d="M4.12877 4.12877V65.8712H14.9287V70H0V0H14.9287V4.12877H4.12877Z" fill="black"/>
<path d="M157.629 0V70H142.7V65.8712H153.489V4.12877H142.7V0H157.629Z" fill="black"/>
</svg>
