<svg width="186" height="209" viewBox="0 0 186 209" fill="none" xmlns="http://www.w3.org/2000/svg">
<path d="M90.7939 124.684C91.4344 125.59 92.039 126.533 92.6048 127.513C93.1927 128.532 93.7256 129.567 94.2044 130.615C101.872 147.404 95.654 167.588 79.3436 177.005C62.0149 187.01 39.8567 181.072 29.8519 163.744C19.8472 146.415 25.7845 124.257 43.1132 114.252C54.296 107.796 67.4901 107.978 78.1312 113.577L70.6161 117.916C62.9213 115.313 54.1868 115.909 46.599 120.29C32.6047 128.369 27.8099 146.264 35.8895 160.258C43.9691 174.252 61.8635 179.047 75.8578 170.967C88.8306 163.478 93.8979 147.554 88.1322 134.121L80.9457 138.27L77.5247 132.344L90.7939 124.684Z" fill="black"/>
<path fill-rule="evenodd" clip-rule="evenodd" d="M108.915 28.4356H115.886V77.2554H144.423V28.4356H151.395V99.4109H144.423V84.2269H115.886V99.4109H108.915V28.4356Z" fill="black"/>
<path fill-rule="evenodd" clip-rule="evenodd" d="M41.7288 33.9195V77.9171C48.4629 79.4466 56.4389 80.2863 63.3815 78.7272C72.6533 76.6452 80.7282 68.4075 80.7282 54.0532C80.7282 48.8616 79.0947 44.9698 76.5444 42.008C73.9452 38.9894 70.2304 36.7546 65.8483 35.258C57.9996 32.5775 48.6477 32.485 41.7288 33.9195ZM41.7288 85.0508L41.7287 99.503L34.7572 99.503L34.7573 28.5719L37.2732 27.8432C45.5674 25.4407 57.7948 25.1407 68.1014 28.6606C73.2966 30.4349 78.2014 33.248 81.8274 37.4591C85.5024 41.7271 87.6997 47.2469 87.6997 54.0532C87.6997 68.767 80.4561 79.0696 70.5663 83.6197L82.2517 95.3052L77.3221 100.235L62.9944 85.9071C55.7805 87.1408 48.1457 86.3784 41.7288 85.0508Z" fill="black"/>
<path fill-rule="evenodd" clip-rule="evenodd" d="M125.518 135.19H134.792L130.155 121.428L125.518 135.19ZM137.141 142.162L150.558 181.984L157.165 179.758L133.458 109.398H126.851L103.144 179.758L109.751 181.984L123.169 142.162H137.141Z" fill="black"/>
<path fill-rule="evenodd" clip-rule="evenodd" d="M185.765 208.851H0.387329V201.88H185.765V208.851Z" fill="black"/>
<path fill-rule="evenodd" clip-rule="evenodd" d="M185.765 7.12509H0.387329V0.153564H185.765V7.12509Z" fill="black"/>
</svg>
